<svg width="24" height="24" viewBox="0 0 24 24" fill="none" xmlns="http://www.w3.org/2000/svg">
<g clip-path="url(#clip0)">
<path d="M12.0811 4.38982L12.0826 4.39068C12.3741 4.55923 12.6223 4.79475 12.8067 5.07833C12.9912 5.36191 13.1067 5.68548 13.1436 6.02274L13.1434 6.02276L13.1453 6.03643C13.2558 6.84101 13.038 7.78244 12.6097 8.7121C12.2626 9.46542 11.7918 10.1793 11.2986 10.7605L10.7853 10.2622C11.2719 9.68614 11.6807 9.03244 11.9717 8.39175C12.3175 7.63059 12.5268 6.82172 12.4391 6.15714C12.4205 5.92778 12.3472 5.70603 12.2252 5.5107L11.8011 5.7756L12.2252 5.5107C12.1002 5.31068 11.928 5.14446 11.7234 5.02701C10.7215 4.44443 9.59788 4.65237 8.90249 4.88124C6.8218 5.55454 4.75781 7.61523 3.7816 9.87127L3.78147 9.87157C2.44247 12.9717 2.1826 15.6283 3.33902 17.4027L3.33928 17.4031C4.15851 18.6575 5.65159 19.33 7.35863 19.33C11.4862 19.33 18.0303 15.5316 19.6655 7.53446L20.3677 7.65398C18.6297 16.2461 11.7135 20.0533 7.35863 20.0533C5.32887 20.0533 3.67231 19.2114 2.74269 17.8006C1.91914 16.5371 1.19747 14.0475 3.12848 9.58285C4.22297 7.08176 6.46283 4.92401 8.68105 4.18252C9.98666 3.75298 11.1493 3.84684 12.0811 4.38982Z" fill="#990000" stroke="#990000"/>
<path d="M15.5979 15.382C17.6845 13.2195 19.0999 10.4928 19.6714 7.53551L20.3671 7.65392C19.7086 10.8986 18.2378 13.729 16.0931 15.9091L15.5979 15.382Z" fill="#990000" stroke="#990000"/>
<path d="M0.5 23.4999V22.7766H23.46V23.4999H0.5Z" fill="#990000" stroke="#990000"/>
<path d="M24.0001 4.40306C23.9995 5.27322 23.7425 6.12367 23.2614 6.8469C22.7804 7.57013 22.097 8.13366 21.2976 8.46626C20.4982 8.79886 19.6187 8.88559 18.7703 8.71548C17.9219 8.54538 17.1427 8.12607 16.5312 7.51058C15.9197 6.89509 15.5034 6.11105 15.3348 5.25757C15.1663 4.4041 15.2531 3.51951 15.5842 2.71565C15.9154 1.91179 16.4761 1.22474 17.1955 0.741367C17.9148 0.257995 18.7604 1.85374e-07 19.6255 0C20.2002 -1.23152e-07 20.7693 0.113909 21.3002 0.335219C21.8312 0.556529 22.3135 0.880902 22.7198 1.2898C23.126 1.6987 23.4482 2.18411 23.6679 2.7183C23.8876 3.25249 24.0004 3.82498 24.0001 4.40306Z" fill="#990000"/>
<path d="M16.3901 1.41895H20.3049C21.2016 1.41895 21.8183 1.65446 22.2124 2.05944C22.3885 2.2392 22.5257 2.45378 22.6151 2.68961C22.7046 2.92544 22.7444 3.17737 22.7321 3.42948V3.44671C22.7447 3.83722 22.6353 4.22188 22.4191 4.5465C22.2029 4.87113 21.8909 5.11934 21.5271 5.25619L22.9234 7.30693H21.0502L19.8709 5.5233H19.1599V7.30693H17.538V2.39262L16.3901 1.41895ZM20.2307 4.25379C20.7818 4.25379 21.0873 3.98381 21.0873 3.55585V3.53862C21.0873 3.0762 20.7533 2.84068 20.2107 2.84068H19.1599V4.25379H20.2307Z" fill="#FEFEFE"/>
</g>
<defs>
<clipPath id="clip0">
<rect width="24" height="24" fill="white"/>
</clipPath>
</defs>
</svg>